<svg id="Capa_1" enable-background="new 0 0 512 512" height="512" viewBox="0 0 512 512" width="512" xmlns="http://www.w3.org/2000/svg"><g><g><g><g><g><g><g><g><g><g><g><g><g><g><g><circle cx="256" cy="256" fill="#5f69e2" r="256"/></g></g></g></g></g></g></g></g></g></g></g></g></g></g><path d="m511.497 240.145-121.137-121.137-289.78 157.564 81.398 81.398-5.198 33.582 117.585 117.585c123.184-18.513 217.635-124.792 217.635-253.137 0-5.326-.182-10.61-.503-15.855z" fill="#424edd"/><path d="m192.8 276.572-31.11-3.704-30.93 3.704 46.02 114.98h46.02z" fill="#2d2d2d"/><path d="m369.159 183.608h14.539c21.638 0 39.179 17.541 39.18 39.179h-9l-22.359 19.588-22.359-19.591v-39.176z" fill="#464646"/><path d="m369.159 222.785 44.718.003h9c0 21.638-17.541 39.179-39.18 39.179h-14.539v-39.182z" fill="#2d2d2d"/><g><path d="m390.36 222.788-83.78 25.421-111.293-25.421 27.513-53.78 167.56-50z" fill="#e3e7f2"/><path d="m390.36 326.568-167.56-50-27.513-53.778 195.073-.002z" fill="#b3d9ff"/></g><path d="m100.58 222.788 61.11 13.856 61.11-13.856v-53.781h-122.22z" fill="#f6533f"/><path d="m100.58 222.788h122.22v53.784h-122.22z" fill="#ed000e"/><g><path d="m138.56 184.333h46.26v23.13h-46.26z" fill="#464646"/><path d="m138.56 236.644h46.26v23.13h-46.26z" fill="#2d2d2d"/></g></g></svg>